<svg width="32" height="32" viewBox="0 0 32 32" xmlns="http://www.w3.org/2000/svg">
  <rect width="32" height="32" rx="6" fill="#0a0a0a"/>
  <path d="M16 2 C16 2 25 9 25 17 C25 21 23 23 20 25 C22 20 20 17 17 16 C17 16 19 21 15 24 C12 26 9 23 9 19 C9 13 12 7 16 2 Z" fill="#7c3aed"/>
  <path d="M16 16 C16 16 21 20 19 25 C18 27 15 28 13 27 C10 25 9 22 11 19 C13 17 15 16 16 16 Z" fill="#a855f7"/>
  <path d="M15 22 C15 22 18 23 17 26 C16.5 27.5 14 28 14 25 C14 23.5 14.5 22 15 22 Z" fill="#e9d5ff"/>
</svg>
